<?xml version="1.0" encoding="UTF-8" standalone="no"?>
<!-- Created with Inkscape (http://www.inkscape.org/) -->

<svg
   xmlns:dc="http://purl.org/dc/elements/1.1/"
   xmlns:cc="http://creativecommons.org/ns#"
   xmlns:rdf="http://www.w3.org/1999/02/22-rdf-syntax-ns#"
   xmlns:svg="http://www.w3.org/2000/svg"
   xmlns="http://www.w3.org/2000/svg"
   xmlns:sodipodi="http://sodipodi.sourceforge.net/DTD/sodipodi-0.dtd"
   xmlns:inkscape="http://www.inkscape.org/namespaces/inkscape"
   width="600"
   height="200"
   viewBox="0 0 158.75 52.916667"
   version="1.1"
   id="svg26"
   inkscape:version="0.92.4 (5da689c313, 2019-01-14)"
   sodipodi:docname="logo.svg">
  <defs
     id="defs20" />
  <sodipodi:namedview
     id="base"
     pagecolor="#ffffff"
     bordercolor="#666666"
     borderopacity="1.0"
     inkscape:pageopacity="0.0"
     inkscape:pageshadow="2"
     inkscape:zoom="0.35"
     inkscape:cx="400"
     inkscape:cy="560"
     inkscape:document-units="mm"
     inkscape:current-layer="layer1"
     showgrid="false"
     units="px"
     inkscape:window-width="1366"
     inkscape:window-height="745"
     inkscape:window-x="-8"
     inkscape:window-y="-8"
     inkscape:window-maximized="1" />
  <metadata
     id="metadata23">
    <rdf:RDF>
      <cc:Work
         rdf:about="">
        <dc:format>image/svg+xml</dc:format>
        <dc:type
           rdf:resource="http://purl.org/dc/dcmitype/StillImage" />
        <dc:title></dc:title>
      </cc:Work>
    </rdf:RDF>
  </metadata>
  <g
     inkscape:label="Capa 1"
     inkscape:groupmode="layer"
     id="layer1"
     transform="translate(0,-244.08333)">
    <path
       id="path44"
       d="m 25.068202,253.42721 c -2.214041,-0.13416 -4.407334,0.24961 -6.604355,0.47321 -1.837858,0.071 -3.51357,0.71666 -5.06091,1.67046 16.963789,-10.17576 6.942149,-4.11278 3.315171,-1.26594 -1.898144,1.43211 -3.110924,3.26565 -3.901008,5.46827 -0.736681,1.89785 -1.358693,3.84083 -1.907999,5.80079 -0.463374,1.83228 -0.573738,3.7207 -0.63132,5.60151 -0.03648,1.69437 -0.01081,3.38912 -0.01935,5.08367 0.08617,1.92858 0.889934,3.73548 1.610471,5.50118 0.822626,1.56474 2.136925,2.78243 3.3749,4.01584 1.499921,1.61477 3.176663,3.01109 5.040981,4.18034 1.787411,1.09064 3.786318,1.32924 5.827445,1.46377 3.008456,0.22785 6.003711,-0.029 9.00025,-0.28134 2.872713,-0.42128 5.753616,-1.05318 8.503018,-1.99983 3.715356,-1.85819 4.127029,-2.08714 -7.594431,4.37327 -0.250859,0.13826 0.483457,-0.31388 0.689499,-0.51286 0.710171,-0.68585 0.921398,-1.53368 1.162883,-2.45219 0.325517,-2.00794 0.394169,-4.06958 0.233683,-6.09669 -0.271322,-1.71952 -1.799677,-2.30398 -3.233629,-2.89482 -1.895369,-0.39756 -3.571573,-1.22598 -5.27535,-2.10636 -1.707787,-0.84765 -3.616125,-0.96324 -5.485657,-1.06265 0,0 9.04289,-6.47877 9.04289,-6.47877 v 0 c 1.999925,0.15877 3.991171,0.42758 5.774,1.42207 1.679252,0.87577 3.427904,1.46605 5.229346,2.03944 1.782342,0.79605 3.433876,1.87019 3.827285,3.92739 0.237975,2.12501 0.118835,4.27932 -0.07605,6.40501 -0.178663,1.00207 -0.32707,2.17687 -0.869069,3.0667 -0.165881,0.27234 -0.365498,0.54717 -0.637937,0.71289 -9.297665,5.65553 -6.820411,4.64525 -11.545916,6.44216 -2.811389,0.82054 -5.687068,1.48271 -8.606524,1.76171 -3.055494,0.22774 -6.119008,0.45794 -9.181551,0.19277 -2.189756,-0.21336 -4.275639,-0.66615 -6.139713,-1.90878 -1.8988993,-1.24657 -3.6004704,-2.74239 -5.1882154,-4.36606 -1.3476221,-1.33676 -2.7580018,-2.67015 -3.6028871,-4.39934 -0.7744907,-1.89047 -1.59167093,-3.83159 -1.83057092,-5.87143 -0.0174457,-1.70673 -0.0126483,-3.4138 0.0165631,-5.12039 0.0493175,-1.95266 0.10886641,-3.91329 0.53423692,-5.8286 0.4608699,-2.00377 1.1471067,-3.96972 1.8715336,-5.88999 0.2306209,-0.68048 0.3996613,-1.38322 0.6724332,-2.04793 0.6469018,-1.57641 1.8231678,-2.86426 3.0431893,-4.0167 4.8034033,-3.93683 10.0942143,-6.96937 15.6457503,-9.85447 1.680568,-0.79435 3.437484,-1.23756 5.303483,-1.30233 2.244709,-0.22879 4.485579,-0.49731 6.747269,-0.43751 0,0 -9.073837,6.59253 -9.073838,6.59253 z"
       inkscape:connector-curvature="0"
       style="stroke-width:0.26458332" />
    <path
       id="path46"
       d="m 68.91344,254.93912 c -2.386525,0.0269 -4.809998,-0.25808 -7.160344,0.20684 -2.357599,0.47645 -4.603255,1.26226 -6.646913,2.53039 15.365629,-8.97583 7.570121,-5.1739 4.683061,-1.01035 -0.931359,1.35516 -1.462836,2.85379 -1.73111,4.46184 -0.199091,1.62918 -0.18115,3.27484 -0.194559,4.91324 0.0069,1.90574 0.01482,3.8114 0.01807,5.71715 -0.06697,2.13453 -0.03809,4.20732 0.555652,6.26931 0.72033,2.08072 1.740559,4.05444 2.723126,6.0244 1.181237,2.27403 2.945003,4.18131 4.973045,5.7242 1.735838,1.22228 3.727955,1.53836 5.790377,1.67932 1.933442,0.0194 3.890991,0.17675 5.809043,-0.10605 4.377216,-1.19602 12.089955,-6.23957 -4.708739,3.37493 0.252166,-0.17254 0.504333,-0.34508 0.756499,-0.51762 0,0 10.383943,-4.09424 10.383943,-4.09424 v 0 c -0.243432,0.17689 -0.486865,0.35378 -0.730297,0.53067 -4.583708,2.68585 -9.189395,6.48208 -14.654771,7.34813 -1.977845,0.10843 -3.964064,0.0741 -5.939695,-0.0683 -2.214144,-0.27354 -4.297764,-0.84164 -6.089306,-2.24742 -2.084287,-1.71563 -3.982529,-3.71561 -5.241946,-6.12579 -1.022109,-2.02227 -2.09746,-4.04397 -2.816309,-6.19518 -0.659882,-2.14004 -0.874938,-4.29419 -0.746916,-6.53125 -0.0037,-1.90642 -0.0097,-3.81283 -0.01553,-5.71925 -0.01778,-1.6785 -0.05375,-3.36128 0.08904,-5.03575 0.200543,-1.73446 0.598855,-3.41488 1.567521,-4.89949 2.963796,-5.29452 9.231114,-7.6249 14.173361,-10.4842 2.157143,-1.09607 4.47878,-1.81136 6.871682,-2.18318 2.446107,-0.22375 4.902356,-0.0618 7.35585,-0.15485 0,0 -9.073835,6.59253 -9.073835,6.59253 z"
       inkscape:connector-curvature="0"
       style="stroke-width:0.26458332" />
    <path
       id="path48"
       d="m 105.11586,253.42203 c -3.23093,-0.077 -6.463288,-0.0706 -9.694877,-0.0535 -2.42103,0.0577 -4.896641,-0.35534 -7.083033,0.87 17.51733,-9.58643 9.681342,-6.96321 7.773746,-3.68676 -0.513442,0.88188 -0.937918,1.83287 -1.387419,2.74843 -0.87798,1.54297 -1.437132,3.21366 -2.006251,4.88476 -0.457485,1.48816 -0.974008,2.95006 -1.273662,4.48025 -0.505555,1.72259 -1.136665,3.3912 -1.488519,5.15661 -0.263919,1.5144 -0.291854,3.05432 -0.311594,4.58717 -0.01656,1.83024 -0.0078,3.66041 -0.0313,5.49059 0.02349,2.20089 0.786442,4.18706 2.113856,5.91618 1.431978,1.08834 3.009996,1.97741 4.552313,2.90612 1.387745,0.82283 3.003648,0.75981 4.53106,1.07178 1.84415,0.40125 3.73076,0.51712 5.61126,0.59237 1.90353,0.0562 3.80808,0.0543 5.71222,0.0493 1.2846,0.003 0.64137,0.002 1.92972,8e-4 0,0 -9.02034,6.55504 -9.02034,6.55504 v 0 c -1.29199,10e-4 -0.6455,-1.6e-4 -1.93947,0.004 -1.91039,-0.008 -3.821959,-0.006 -5.730443,-0.10259 -1.916938,-0.11156 -3.827915,-0.29941 -5.710608,-0.69231 -1.670399,-0.24305 -3.337814,-0.45157 -4.777576,-1.42052 -1.618834,-1.03594 -3.36982,-1.91617 -4.738449,-3.28572 -1.396894,-1.9442 -2.341904,-4.12126 -2.435765,-6.54677 -0.02966,-1.82222 -0.03725,-3.64471 -0.0427,-5.46713 0.01058,-1.58986 0.0236,-3.18524 0.241302,-4.76321 0.28878,-1.77071 0.769702,-3.49072 1.479405,-5.14237 0.240607,-1.59592 0.719214,-3.10438 1.211029,-4.63529 0.55331,-1.71574 1.069563,-3.4594 1.982036,-5.02783 3.241982,-6.97932 1.960179,-4.83667 12.521856,-10.59174 2.347016,-0.70286 4.810353,-0.38564 7.229503,-0.42601 3.28074,0.0176 6.56215,0.0214 9.84226,-0.0535 0,0 -9.05957,6.58217 -9.05957,6.58217 z"
       inkscape:connector-curvature="0"
       style="stroke-width:0.26458332" />
  </g>
</svg>
